0
SECTION
2
HEADER
9
$ACADVER
1
AC1009
0
ENDSEC
0
SECTION
2
ENTITIES
0
LINE
8
A-WALL
10
0
20
0
30
0
11
72000
21
0
31
0
0
LINE
8
A-WALL
10
72000
20
0
30
0
11
72000
21
42000
31
0
0
LINE
8
A-WALL
10
72000
20
42000
30
0
11
0
21
42000
31
0
0
LINE
8
A-WALL
10
0
20
42000
30
0
11
0
21
0
31
0
0
LINE
8
A-WALL
10
22000
20
9000
30
0
11
50000
21
9000
31
0
0
LINE
8
A-WALL
10
50000
20
9000
30
0
11
50000
21
33000
31
0
0
LINE
8
A-WALL
10
50000
20
33000
30
0
11
22000
21
33000
31
0
0
LINE
8
A-WALL
10
22000
20
33000
30
0
11
22000
21
9000
31
0
0
TEXT
8
A-NOTE
10
0
20
-5000
30
0
40
1000
1
SYNTHETIC DEMO - fictional project records - NOT FOR CONSTRUCTION
0
ENDSEC
0
EOF
